<svg width="16" height="16" viewBox="0 0 16 16" fill="none" xmlns="http://www.w3.org/2000/svg">
<path d="M7.8522 3.73955C5.76619 3.73955 4.08361 5.49671 4.08361 7.67519C4.08361 9.85366 5.76619 11.6108 7.8522 11.6108C9.9382 11.6108 11.6208 9.85366 11.6208 7.67519C11.6208 5.49671 9.9382 3.73955 7.8522 3.73955ZM7.8522 10.2339C6.50416 10.2339 5.40212 9.0864 5.40212 7.67519C5.40212 6.26397 6.50088 5.11651 7.8522 5.11651C9.20351 5.11651 10.3023 6.26397 10.3023 7.67519C10.3023 9.0864 9.20023 10.2339 7.8522 10.2339ZM12.6539 3.57856C12.6539 4.08892 12.2604 4.49653 11.7749 4.49653C11.2862 4.49653 10.8959 4.0855 10.8959 3.57856C10.8959 3.07162 11.2895 2.66058 11.7749 2.66058C12.2604 2.66058 12.6539 3.07162 12.6539 3.57856ZM15.1499 4.51023C15.0942 3.28056 14.8252 2.19132 13.9626 1.2939C13.1033 0.396476 12.0603 0.115603 10.8828 0.0539481C9.66925 -0.0179827 6.03186 -0.0179827 4.8183 0.0539481C3.6441 0.112178 2.6011 0.39305 1.73849 1.29047C0.875879 2.1879 0.610208 3.27713 0.55117 4.50681C0.482292 5.77416 0.482292 9.57279 0.55117 10.8401C0.606928 12.0698 0.875879 13.1591 1.73849 14.0565C2.6011 14.9539 3.64082 15.2348 4.8183 15.2964C6.03186 15.3684 9.66925 15.3684 10.8828 15.2964C12.0603 15.2382 13.1033 14.9573 13.9626 14.0565C14.822 13.1591 15.0909 12.0698 15.1499 10.8401C15.2188 9.57279 15.2188 5.77759 15.1499 4.51023ZM13.5822 12.2C13.3263 12.8713 12.8311 13.3885 12.1849 13.6591C11.2174 14.0599 8.92144 13.9674 7.8522 13.9674C6.78295 13.9674 4.48375 14.0565 3.51947 13.6591C2.87661 13.392 2.38135 12.8748 2.12224 12.2C1.73849 11.1895 1.82705 8.79183 1.82705 7.67519C1.82705 6.55855 1.74177 4.15743 2.12224 3.1504C2.37807 2.47904 2.87333 1.96183 3.51947 1.69123C4.48703 1.29047 6.78295 1.38296 7.8522 1.38296C8.92144 1.38296 11.2206 1.2939 12.1849 1.69123C12.8278 1.9584 13.323 2.47562 13.5822 3.1504C13.9659 4.16085 13.8773 6.55855 13.8773 7.67519C13.8773 8.79183 13.9659 11.1929 13.5822 12.2Z" fill="white"/>
</svg>
