<svg width="16" height="16" viewBox="0 0 16 16" fill="none" xmlns="http://www.w3.org/2000/svg">
<path d="M14.2392 3.97879C14.2492 4.14667 14.2492 4.3146 14.2492 4.48248C14.2492 9.60325 11.0152 15.5036 5.10449 15.5036C3.2835 15.5036 1.5919 14.8679 0.168945 13.7647C0.427672 13.8006 0.676414 13.8126 0.945096 13.8126C2.44763 13.8126 3.83079 13.201 4.93532 12.1577C3.52232 12.1217 2.33819 11.0064 1.9302 9.47135C2.12923 9.50731 2.32823 9.5313 2.53722 9.5313C2.82578 9.5313 3.11437 9.48331 3.38302 9.39941C1.91032 9.0396 0.805763 7.4806 0.805763 5.59778V5.54983C1.23363 5.83765 1.7312 6.01753 2.25855 6.04149C1.39284 5.34591 0.825672 4.15867 0.825672 2.8155C0.825672 2.09597 0.984853 1.43638 1.26349 0.860737C2.84566 3.21126 5.22388 4.74627 7.89064 4.9142C7.84089 4.62638 7.81103 4.32659 7.81103 4.02677C7.81103 1.89209 9.24394 0.153198 11.0251 0.153198C11.9505 0.153198 12.7864 0.620904 13.3735 1.37643C14.0998 1.20854 14.7964 0.884731 15.4134 0.44102C15.1745 1.34048 14.667 2.096 14.0004 2.57567C14.6472 2.49176 15.2741 2.27585 15.8512 1.97607C15.4134 2.74356 14.8661 3.4271 14.2392 3.97879Z" fill="white"/>
</svg>
