<svg width="15" height="16" viewBox="0 0 15 16" fill="none" xmlns="http://www.w3.org/2000/svg">
<path d="M1.03344 1.079C0 2.15801 0 3.89485 0 7.36818V7.9822C0 11.4555 0 13.1924 1.03344 14.2714C2.06687 15.3504 3.73036 15.3504 7.057 15.3504H7.64509C10.9717 15.3504 12.6352 15.3504 13.6686 14.2714C14.7021 13.1924 14.7021 11.4555 14.7021 7.9822V7.36818C14.7021 3.89485 14.7021 2.15801 13.6686 1.079C12.6352 0 10.9717 0 7.64509 0H7.057C3.73036 0 2.06687 0 1.03344 1.079ZM2.48098 4.66908H4.15948C4.21461 7.59844 5.45201 8.83925 6.43216 9.0951V4.66908H8.01264V7.19549C8.98052 7.08677 9.99742 5.93549 10.3405 4.66908H11.9209C11.7916 5.32586 11.5339 5.94769 11.1639 6.49578C10.794 7.04384 10.3197 7.5063 9.77075 7.85429C10.3837 8.17198 10.9251 8.62191 11.3591 9.17428C11.7931 9.72669 12.1099 10.369 12.2885 11.0587H10.5487C10.3884 10.4596 10.0622 9.92326 9.611 9.51703C9.15983 9.11083 8.60377 8.85278 8.01264 8.77531V11.0587H7.82273C4.4719 11.0587 2.56061 8.66018 2.48098 4.66908Z" fill="white"/>
</svg>
